PublicSans-BlackItalic.ufo
<glyph name="percent" format="2">
  <advance width="1802"/>
  <unicode hex="0025"/>
  <outline>
    <contour>
      <point x="1271" y="-20" type="curve" smooth="yes"/>
      <point x="1473" y="-20"/>
      <point x="1653" y="174"/>
      <point x="1683" y="384" type="curve" smooth="yes"/>
      <point x="1713" y="596"/>
      <point x="1585" y="798"/>
      <point x="1385" y="798" type="curve" smooth="yes"/>
      <point x="1187" y="798"/>
      <point x="1001" y="596"/>
      <point x="971" y="384" type="curve" smooth="yes"/>
      <point x="941" y="174"/>
      <point x="1069" y="-20"/>
    </contour>
    <contour>
      <point x="457" y="652" type="curve" smooth="yes"/>
      <point x="657" y="652"/>
      <point x="837" y="844"/>
      <point x="867" y="1054" type="curve" smooth="yes"/>
      <point x="897" y="1268"/>
      <point x="767" y="1468"/>
      <point x="571" y="1468" type="curve" smooth="yes"/>
      <point x="373" y="1468"/>
      <point x="185" y="1268"/>
      <point x="155" y="1054" type="curve" smooth="yes"/>
      <point x="127" y="844"/>
      <point x="253" y="652"/>
    </contour>
    <contour>
      <point x="481" y="842" type="curve" smooth="yes"/>
      <point x="407" y="842"/>
      <point x="395" y="914"/>
      <point x="415" y="1054" type="curve" smooth="yes"/>
      <point x="435" y="1200"/>
      <point x="471" y="1280"/>
      <point x="543" y="1280" type="curve" smooth="yes"/>
      <point x="615" y="1280"/>
      <point x="627" y="1202"/>
      <point x="607" y="1054" type="curve" smooth="yes"/>
      <point x="587" y="914"/>
      <point x="557" y="842"/>
    </contour>
    <contour>
      <point x="1295" y="172" type="curve" smooth="yes"/>
      <point x="1223" y="172"/>
      <point x="1213" y="244"/>
      <point x="1231" y="382" type="curve" smooth="yes"/>
      <point x="1253" y="528"/>
      <point x="1285" y="608"/>
      <point x="1357" y="608" type="curve" smooth="yes"/>
      <point x="1429" y="608"/>
      <point x="1441" y="530"/>
      <point x="1421" y="382" type="curve" smooth="yes"/>
      <point x="1401" y="244"/>
      <point x="1371" y="172"/>
    </contour>
    <component base="fraction" xScale="0.92" yxScale="0.14054" xOffset="632"/>
  </outline>
</glyph>
<glyph name="quotesingle" format="2">
  <advance width="544"/>
  <unicode hex="0027"/>
  <outline>
    <contour>
      <point x="215" y="802" type="line"/>
      <point x="397" y="802" type="line"/>
      <point x="585" y="1446" type="line"/>
      <point x="221" y="1446" type="line"/>
    </contour>
  </outline>
</glyph>
<glyph name="hyphen" format="2">
  <advance width="811"/>
  <unicode hex="002D"/>
  <outline>
    <contour>
      <point x="97" y="376" type="line"/>
      <point x="673" y="376" type="line"/>
      <point x="713" y="650" type="line"/>
      <point x="137" y="650" type="line"/>
    </contour>
  </outline>
</glyph>
<glyph name="slash" format="2">
  <advance width="830"/>
  <unicode hex="002F"/>
  <outline>
    <contour>
      <point x="-53" y="0" type="line"/>
      <point x="205" y="0" type="line"/>
      <point x="931" y="1446" type="line"/>
      <point x="673" y="1446" type="line"/>
    </contour>
  </outline>
</glyph>
<glyph name="greater" format="2">
  <advance width="1215"/>
  <unicode hex="003E"/>
  <outline>
    <contour>
      <point x="58" y="144" type="line"/>
      <point x="1104" y="526" type="line"/>
      <point x="1150" y="836" type="line"/>
      <point x="220" y="1218" type="line"/>
      <point x="172" y="898" type="line"/>
      <point x="718" y="678" type="line"/>
      <point x="108" y="468" type="line"/>
    </contour>
  </outline>
</glyph>
<glyph name="I" format="2">
  <advance width="673"/>
  <unicode hex="0049"/>
  <anchor x="277" y="0" name="bottom"/>
  <anchor x="403" y="6" name="ogonek"/>
  <anchor x="477" y="1446" name="top"/>
  <outline>
    <contour>
      <point x="62" y="0" type="line"/>
      <point x="451" y="0" type="line"/>
      <point x="669" y="1446" type="line"/>
      <point x="281" y="1446" type="line"/>
    </contour>
  </outline>
</glyph>
<glyph name="L" format="2">
  <advance width="1155"/>
  <unicode hex="004C"/>
  <anchor x="537" y="0" name="bottom"/>
  <anchor x="900" y="1446" name="caron"/>
  <anchor x="467" y="1446" name="top"/>
  <outline>
    <contour>
      <point x="62" y="0" type="line"/>
      <point x="1024" y="0" type="line"/>
      <point x="1073" y="320" type="line"/>
      <point x="499" y="320" type="line"/>
      <point x="669" y="1446" type="line"/>
      <point x="283" y="1446" type="line"/>
    </contour>
  </outline>
</glyph>
<glyph name="W" format="2">
  <advance width="1952"/>
  <unicode hex="0057"/>
  <guideline x="228" y="670" angle="286.06"/>
  <guideline x="431" y="670" angle="74.3834"/>
  <anchor x="1106" y="1446" name="top"/>
  <outline>
    <contour>
      <point x="375" y="0" type="line"/>
      <point x="659" y="0" type="line"/>
      <point x="1007" y="786" type="line"/>
      <point x="1115" y="0" type="line"/>
      <point x="1403" y="0" type="line"/>
      <point x="2053" y="1446" type="line"/>
      <point x="1679" y="1446" type="line"/>
      <point x="1347" y="670" type="line"/>
      <point x="1241" y="1446" type="line"/>
      <point x="971" y="1446" type="line"/>
      <point x="639" y="670" type="line"/>
      <point x="535" y="1446" type="line"/>
      <point x="161" y="1446" type="line"/>
    </contour>
  </outline>
</glyph>
<glyph name="Y" format="2">
  <advance width="1436"/>
  <unicode hex="0059"/>
  <guideline x="507" y="670" angle="58.823"/>
  <anchor x="627" y="0" name="bottom"/>
  <anchor x="829" y="1446" name="top"/>
  <outline>
    <contour>
      <point x="434" y="0" type="line"/>
      <point x="819" y="0" type="line"/>
      <point x="911" y="602" type="line"/>
      <point x="1552" y="1446" type="line"/>
      <point x="1129" y="1446" type="line"/>
      <point x="770" y="932" type="line"/>
      <point x="563" y="1446" type="line"/>
      <point x="146" y="1446" type="line"/>
      <point x="523" y="602" type="line"/>
    </contour>
  </outline>
</glyph>
<glyph name="underscore" format="2">
  <advance width="1167"/>
  <unicode hex="005F"/>
  <outline>
    <contour>
      <point x="-7" y="-312" type="line"/>
      <point x="927" y="-312" type="line"/>
      <point x="969" y="-40" type="line"/>
      <point x="35" y="-40" type="line"/>
    </contour>
  </outline>
</glyph>
<glyph name="c" format="2">
  <advance width="1096"/>
  <unicode hex="0063"/>
  <guideline x="-472" y="167" angle="359.4423"/>
  <guideline x="532" y="123" angle="0"/>
  <guideline x="427" y="307" angle="3.769"/>
  <anchor x="496" y="0" name="bottom"/>
  <anchor x="657" y="1034" name="top"/>
  <outline>
    <contour>
      <point x="496" y="-20" type="curve" smooth="yes"/>
      <point x="777" y="-20"/>
      <point x="973" y="180"/>
      <point x="1005" y="400" type="curve"/>
      <point x="700" y="400" type="line"/>
      <point x="689" y="358"/>
      <point x="645" y="248"/>
      <point x="547" y="248" type="curve" smooth="yes"/>
      <point x="449" y="248"/>
      <point x="389" y="346"/>
      <point x="414" y="516" type="curve" smooth="yes"/>
      <point x="441" y="682"/>
      <point x="519" y="766"/>
      <point x="618" y="766" type="curve" smooth="yes"/>
      <point x="717" y="766"/>
      <point x="731" y="670"/>
      <point x="729" y="612" type="curve"/>
      <point x="1043" y="612" type="line"/>
      <point x="1073" y="844"/>
      <point x="950" y="1054"/>
      <point x="658" y="1054" type="curve" smooth="yes"/>
      <point x="361" y="1054"/>
      <point x="107" y="832"/>
      <point x="59" y="512" type="curve" smooth="yes"/>
      <point x="11" y="196"/>
      <point x="202" y="-20"/>
    </contour>
  </outline>
</glyph>
<glyph name="i" format="2">
  <advance width="571"/>
  <unicode hex="0069"/>
  <anchor x="212" y="0" name="bottom"/>
  <outline>
    <contour>
      <point x="27" y="0" type="line"/>
      <point x="397" y="0" type="line"/>
      <point x="543" y="1034" type="line"/>
      <point x="173" y="1034" type="line"/>
    </contour>
    <contour>
      <point x="185" y="1118" type="line"/>
      <point x="555" y="1118" type="line"/>
      <point x="601" y="1446" type="line"/>
      <point x="231" y="1446" type="line"/>
    </contour>
  </outline>
</glyph>
<glyph name="s" format="2">
  <advance width="1071"/>
  <unicode hex="0073"/>
  <anchor x="468" y="0" name="bottom"/>
  <anchor x="625" y="1034" name="top"/>
  <outline>
    <contour>
      <point x="471" y="-20" type="curve" smooth="yes"/>
      <point x="735" y="-20"/>
      <point x="957" y="98"/>
      <point x="988" y="320" type="curve" smooth="yes"/>
      <point x="1000" y="406"/>
      <point x="979" y="580"/>
      <point x="722" y="644" type="curve"/>
      <point x="592" y="668" type="line"/>
      <point x="484" y="686"/>
      <point x="443" y="706"/>
      <point x="448" y="742" type="curve" smooth="yes"/>
      <point x="453" y="782"/>
      <point x="513" y="804"/>
      <point x="585" y="804" type="curve" smooth="yes"/>
      <point x="656" y="804"/>
      <point x="714" y="774"/>
      <point x="720" y="712" type="curve"/>
      <point x="1037" y="712" type="line"/>
      <point x="1067" y="922"/>
      <point x="907" y="1054"/>
      <point x="625" y="1054" type="curve" smooth="yes"/>
      <point x="323" y="1054"/>
      <point x="132" y="902"/>
      <point x="107" y="710" type="curve" smooth="yes"/>
      <point x="83" y="524"/>
      <point x="202" y="430"/>
      <point x="395" y="394" type="curve"/>
      <point x="544" y="370" type="line"/>
      <point x="635" y="356"/>
      <point x="664" y="336"/>
      <point x="658" y="298" type="curve" smooth="yes"/>
      <point x="652" y="256"/>
      <point x="591" y="236"/>
      <point x="505" y="236" type="curve" smooth="yes"/>
      <point x="471" y="236"/>
      <point x="368" y="248"/>
      <point x="356" y="348" type="curve"/>
      <point x="26" y="348" type="line"/>
      <point x="33" y="84"/>
      <point x="255" y="-20"/>
    </contour>
  </outline>
</glyph>
<glyph name="t" format="2">
  <advance width="880"/>
  <unicode hex="0074"/>
  <anchor x="425" y="18" name="bottom"/>
  <anchor x="926" y="1446" name="caron"/>
  <anchor x="429" y="516" name="center"/>
  <outline>
    <contour>
      <point x="519" y="-16" type="curve" smooth="yes"/>
      <point x="643" y="-16"/>
      <point x="698" y="2"/>
      <point x="729" y="16" type="curve"/>
      <point x="763" y="246" type="line"/>
      <point x="603" y="246" type="line" smooth="yes"/>
      <point x="568" y="246"/>
      <point x="542" y="256"/>
      <point x="549" y="302" type="curve" smooth="yes"/>
      <point x="618" y="770" type="line"/>
      <point x="843" y="770" type="line"/>
      <point x="883" y="1036" type="line"/>
      <point x="658" y="1036" type="line"/>
      <point x="706" y="1356" type="line"/>
      <point x="393" y="1356" type="line"/>
      <point x="286" y="1034" type="line"/>
      <point x="106" y="1034" type="line"/>
      <point x="66" y="770" type="line"/>
      <point x="232" y="770" type="line"/>
      <point x="158" y="284" type="line" smooth="yes"/>
      <point x="135" y="118"/>
      <point x="194" y="-16"/>
    </contour>
  </outline>
</glyph>
<glyph name="z" format="2">
  <advance width="1025"/>
  <unicode hex="007A"/>
  <anchor x="414" y="0" name="bottom"/>
  <anchor x="598" y="1034" name="top"/>
  <outline>
    <contour>
      <point x="-20" y="0" type="line"/>
      <point x="900" y="0" type="line"/>
      <point x="938" y="266" type="line"/>
      <point x="495" y="266" type="line"/>
      <point x="1019" y="828" type="line"/>
      <point x="1044" y="1034" type="line"/>
      <point x="152" y="1034" type="line"/>
      <point x="115" y="768" type="line"/>
      <point x="529" y="768" type="line"/>
      <point x="6" y="206" type="line"/>
    </contour>
  </outline>
</glyph>
<glyph name="ae" format="2">
  <advance width="1784"/>
  <unicode hex="00E6"/>
  <anchor x="967" y="1034" name="top"/>
  <anchor x="1152" y="0" name="bottom"/>
  <anchor x="1408" y="50" name="ogonek"/>
  <outline>
    <contour>
      <point x="337" y="-20" type="curve" smooth="yes"/>
      <point x="585" y="-20"/>
      <point x="708" y="58"/>
      <point x="780" y="197" type="curve"/>
      <point x="1087" y="732" type="line"/>
      <point x="1114" y="922"/>
      <point x="1023" y="1054"/>
      <point x="663" y="1054" type="curve" smooth="yes"/>
      <point x="397" y="1054"/>
      <point x="168" y="956"/>
      <point x="122" y="712" type="curve"/>
      <point x="437" y="712" type="line"/>
      <point x="479" y="782"/>
      <point x="557" y="800"/>
      <point x="610" y="802" type="curve" smooth="yes"/>
      <point x="688" y="804"/>
      <point x="721" y="774"/>
      <point x="712" y="708" type="curve" smooth="yes"/>
      <point x="706" y="664" type="line"/>
      <point x="626" y="664" type="line" smooth="yes"/>
      <point x="250" y="664"/>
      <point x="57" y="534"/>
      <point x="26" y="310" type="curve" smooth="yes"/>
      <point x="-4" y="96"/>
      <point x="142" y="-20"/>
    </contour>
    <contour>
      <point x="508" y="226" type="curve" smooth="yes"/>
      <point x="441" y="226"/>
      <point x="386" y="272"/>
      <point x="397" y="350" type="curve" smooth="yes"/>
      <point x="411" y="452"/>
      <point x="556" y="480"/>
      <point x="617" y="480" type="curve" smooth="yes"/>
      <point x="680" y="480" type="line"/>
      <point x="662" y="350" type="line"/>
      <point x="650" y="284"/>
      <point x="583" y="226"/>
    </contour>
    <component base="e" xOffset="645"/>
  </outline>
</glyph>
<glyph name="dcroat" format="2">
  <advance width="1298"/>
  <unicode hex="0111"/>
  <anchor x="553" y="0" name="bottom"/>
  <anchor x="1301" y="1437" name="caron"/>
  <anchor x="631" y="516" name="center"/>
  <outline>
    <contour>
      <point x="600" y="1132" type="line"/>
      <point x="1324" y="1132" type="line"/>
      <point x="1352" y="1340" type="line"/>
      <point x="628" y="1340" type="line"/>
    </contour>
    <component base="d"/>
  </outline>
</glyph>
<glyph name="Hbar" format="2">
  <advance width="1679"/>
  <unicode hex="0126"/>
  <anchor x="766" y="0" name="bottom"/>
  <anchor x="986" y="1446" name="top"/>
  <outline>
    <contour>
      <point x="119" y="1082" type="line"/>
      <point x="1717" y="1082" type="line"/>
      <point x="1747" y="1284" type="line"/>
      <point x="149" y="1284" type="line"/>
    </contour>
    <component base="H" xOffset="72"/>
  </outline>
</glyph>
<glyph name="tbar" format="2">
  <advance width="956"/>
  <unicode hex="0167"/>
  <anchor x="464" y="18" name="bottom"/>
  <anchor x="965" y="1446" name="caron"/>
  <anchor x="468" y="516" name="center"/>
  <outline>
    <contour>
      <point x="60" y="450" type="line"/>
      <point x="783" y="450" type="line"/>
      <point x="783" y="660" type="line"/>
      <point x="60" y="660" type="line"/>
    </contour>
    <component base="t" xOffset="39"/>
  </outline>
</glyph>
<glyph name="brevecomb" format="2">
  <unicode hex="0306"/>
  <anchor x="501" y="1034" name="_top"/>
  <outline>
    <contour>
      <point x="519" y="1156" type="curve" smooth="yes"/>
      <point x="695" y="1156"/>
      <point x="867" y="1250"/>
      <point x="955" y="1446" type="curve"/>
      <point x="745" y="1446" type="line"/>
      <point x="697" y="1378"/>
      <point x="633" y="1330"/>
      <point x="545" y="1330" type="curve" smooth="yes"/>
      <point x="459" y="1330"/>
      <point x="409" y="1378"/>
      <point x="381" y="1446" type="curve"/>
      <point x="171" y="1446" type="line"/>
      <point x="199" y="1244"/>
      <point x="347" y="1156"/>
    </contour>
  </outline>
</glyph>
<glyph name="dotaccentcomb" format="2">
  <unicode hex="0307"/>
  <anchor x="262" y="1034" name="_top"/>
  <outline>
    <contour>
      <point x="100" y="1155" type="line"/>
      <point x="458" y="1155" type="line"/>
      <point x="502" y="1446" type="line"/>
      <point x="144" y="1446" type="line"/>
    </contour>
  </outline>
</glyph>
<glyph name="hookabovecomb" format="2">
  <unicode hex="0309"/>
  <guideline x="298" y="723" angle="33"/>
  <guideline x="408" y="750" angle="302.6992"/>
  <guideline x="340" y="657" angle="302.6992"/>
  <guideline x="391" y="737" angle="302.6992"/>
  <guideline x="318" y="691" angle="33"/>
  <guideline x="340" y="657" angle="33"/>
  <anchor x="653" y="1034" name="_top"/>
  <anchor x="577" y="1198" name="_topviet"/>
  <outline>
    <contour>
      <point x="749" y="1134" type="line"/>
      <point x="911" y="1222"/>
      <point x="953" y="1348"/>
      <point x="893" y="1472" type="curve" smooth="yes"/>
      <point x="843" y="1576"/>
      <point x="703" y="1606"/>
      <point x="561" y="1522" type="curve"/>
      <point x="623" y="1396" type="line"/>
      <point x="669" y="1424"/>
      <point x="725" y="1418"/>
      <point x="741" y="1382" type="curve" smooth="yes"/>
      <point x="761" y="1336"/>
      <point x="739" y="1294"/>
      <point x="687" y="1264" type="curve"/>
    </contour>
  </outline>
</glyph>
<glyph name="dblgravecomb" format="2">
  <unicode hex="030F"/>
  <anchor x="774" y="1034" name="_top"/>
  <outline>
    <contour>
      <point x="951" y="1446" type="line"/>
      <point x="624" y="1446" type="line"/>
      <point x="851" y="1155" type="line"/>
      <point x="1116" y="1155" type="line"/>
    </contour>
    <contour>
      <point x="481" y="1446" type="line"/>
      <point x="141" y="1446" type="line"/>
      <point x="430" y="1155" type="line"/>
      <point x="696" y="1155" type="line"/>
    </contour>
  </outline>
</glyph>
<glyph name="horncomb" format="2">
  <unicode hex="031B"/>
  <anchor x="51" y="880" name="_horn"/>
  <anchor x="289" y="1060" name="_topright"/>
  <anchor x="289" y="1060" name="topright"/>
  <outline>
    <contour>
      <point x="51" y="880" type="line"/>
      <point x="401" y="840"/>
      <point x="505" y="952"/>
      <point x="559" y="1278" type="curve"/>
      <point x="325" y="1278" type="line"/>
      <point x="269" y="1040"/>
      <point x="219" y="1056"/>
      <point x="77" y="1058" type="curve"/>
    </contour>
  </outline>
</glyph>
<glyph name="quotesinglbase" format="2">
  <advance width="655"/>
  <unicode hex="201A"/>
  <outline>
    <contour>
      <point x="-15" y="-302" type="line"/>
      <point x="123" y="-302" type="line"/>
      <point x="425" y="44" type="line"/>
      <point x="471" y="344" type="line"/>
      <point x="89" y="344" type="line"/>
      <point x="37" y="6" type="line"/>
      <point x="159" y="-8" type="line"/>
    </contour>
  </outline>
</glyph>
<glyph name="dagger" format="2">
  <advance width="1154"/>
  <unicode hex="2020"/>
  <outline>
    <contour>
      <point x="257" y="-322" type="line"/>
      <point x="615" y="-322" type="line"/>
      <point x="705" y="750" type="line"/>
      <point x="1065" y="694" type="line"/>
      <point x="1115" y="1022" type="line"/>
      <point x="751" y="972" type="line"/>
      <point x="885" y="1446" type="line"/>
      <point x="521" y="1446" type="line"/>
      <point x="511" y="972" type="line"/>
      <point x="165" y="1022" type="line"/>
      <point x="115" y="694" type="line"/>
      <point x="489" y="750" type="line"/>
    </contour>
  </outline>
</glyph>
<glyph name="guilsinglleft" format="2">
  <advance width="676"/>
  <unicode hex="2039"/>
  <outline>
    <contour>
      <point x="272" y="118" type="line"/>
      <point x="472" y="118" type="line"/>
      <point x="402" y="502" type="line"/>
      <point x="590" y="902" type="line"/>
      <point x="390" y="902" type="line"/>
      <point x="118" y="502" type="line"/>
    </contour>
  </outline>
</glyph>
<glyph name="fraction" format="2">
  <advance width="491"/>
  <unicode hex="2044"/>
  <outline>
    <contour>
      <point x="-215" y="-8" type="line"/>
      <point x="976" y="1462" type="line"/>
      <point x="768" y="1462" type="line"/>
      <point x="-425" y="-4" type="line"/>
    </contour>
  </outline>
</glyph>
<glyph name="naira" format="2">
  <advance width="1754"/>
  <unicode hex="20A6"/>
  <anchor x="739.328" y="0" name="bottom"/>
  <anchor x="1178.38748" y="1446" name="top"/>
  <outline>
    <contour>
      <point x="76" y="888" type="line"/>
      <point x="1646" y="888" type="line"/>
      <point x="1674" y="1064" type="line"/>
      <point x="104" y="1064" type="line"/>
    </contour>
    <contour>
      <point x="6" y="420" type="line"/>
      <point x="1576" y="420" type="line"/>
      <point x="1602" y="596" type="line"/>
      <point x="32" y="596" type="line"/>
    </contour>
    <component base="N" xScale="0.9936" yxScale="0.15178" xOffset="14"/>
  </outline>
</glyph>
<glyph name="increment" format="2">
  <advance width="1654"/>
  <unicode hex="2206"/>
  <guideline x="117" y="400" angle="239.873"/>
  <guideline x="898" y="0" angle="301.3682"/>
  <guideline x="437" y="290" angle="90"/>
  <outline>
    <contour>
      <point x="-43" y="0" type="line"/>
      <point x="1551" y="0" type="line"/>
      <point x="993" y="1446" type="line"/>
    </contour>
    <contour>
      <point x="563" y="318" type="line"/>
      <point x="891" y="772" type="line"/>
      <point x="1059" y="318" type="line"/>
    </contour>
  </outline>
</glyph>
<glyph name="bulletoperator" format="2">
  <advance width="770"/>
  <unicode hex="2219"/>
  <outline>
    <contour>
      <point x="372" y="550" type="curve" smooth="yes"/>
      <point x="472" y="550"/>
      <point x="566" y="632"/>
      <point x="580" y="732" type="curve" smooth="yes"/>
      <point x="596" y="832"/>
      <point x="526" y="914"/>
      <point x="428" y="914" type="curve" smooth="yes"/>
      <point x="328" y="914"/>
      <point x="234" y="832"/>
      <point x="220" y="732" type="curve" smooth="yes"/>
      <point x="204" y="632"/>
      <point x="274" y="550"/>
    </contour>
  </outline>
</glyph>
<glyph name="lozenge" format="2">
  <advance width="1227"/>
  <unicode hex="25CA"/>
  <outline>
    <contour>
      <point x="435" y="0" type="line"/>
      <point x="671" y="0" type="line"/>
      <point x="1167" y="728" type="line"/>
      <point x="899" y="1446" type="line"/>
      <point x="661" y="1446" type="line"/>
      <point x="169" y="724" type="line"/>
    </contour>
    <contour>
      <point x="599" y="264" type="line"/>
      <point x="451" y="728" type="line"/>
      <point x="737" y="1174" type="line"/>
      <point x="889" y="724" type="line"/>
    </contour>
  </outline>
</glyph>
<glyph name="__horn" format="2">
  <advance width="302"/>
  <anchor x="51" y="880" name="_horn"/>
  <anchor x="289" y="1060" name="_topright"/>
  <anchor x="289" y="1060" name="topright"/>
  <outline>
    <contour>
      <point x="51" y="880" type="line"/>
      <point x="401" y="840"/>
      <point x="505" y="952"/>
      <point x="559" y="1278" type="curve"/>
      <point x="325" y="1278" type="line"/>
      <point x="269" y="1040"/>
      <point x="219" y="1056"/>
      <point x="77" y="1058" type="curve"/>
    </contour>
  </outline>
</glyph>
<glyph name="_emdash" format="2">
  <advance width="2356"/>
  <outline>
    <contour>
      <point x="2021" y="630" type="line"/>
      <point x="368" y="630" type="line"/>
      <point x="329" y="356" type="line"/>
      <point x="1982" y="356" type="line"/>
    </contour>
  </outline>
</glyph>
<glyph name="acutecomb.001" format="2">
  <anchor x="239" y="1034" name="_top"/>
  <outline>
    <contour>
      <point x="286" y="1446" type="line"/>
      <point x="100" y="1158" type="line"/>
      <point x="383" y="1155" type="line"/>
      <point x="656" y="1446" type="line"/>
    </contour>
  </outline>
</glyph>
<glyph name="acutecomb.viet" format="2">
  <anchor x="219" y="1034" name="_top"/>
  <outline>
    <contour>
      <point x="237" y="1413" type="line"/>
      <point x="100" y="1155" type="line"/>
      <point x="289" y="1155" type="line"/>
      <point x="517" y="1413" type="line"/>
    </contour>
  </outline>
</glyph>
<glyph name="colon_f_l_a_g_colon.liga" format="2">
  <advance width="2565"/>
  <outline>
    <contour>
      <point x="367" y="1404" type="line"/>
      <point x="2267" y="1404" type="line"/>
      <point x="2267" y="118" type="line"/>
      <point x="367" y="118" type="line"/>
    </contour>
    <contour>
      <point x="251" y="1522" type="line"/>
      <point x="251" y="2" type="line"/>
      <point x="2383" y="2" type="line"/>
      <point x="2383" y="1522" type="line"/>
    </contour>
    <contour>
      <point x="271" y="352" type="line"/>
      <point x="271" y="234" type="line"/>
      <point x="2355" y="234" type="line"/>
      <point x="2355" y="352" type="line"/>
    </contour>
    <contour>
      <point x="271" y="586" type="line"/>
      <point x="271" y="468" type="line"/>
      <point x="2355" y="468" type="line"/>
      <point x="2355" y="586" type="line"/>
    </contour>
    <contour>
      <point x="1187" y="820" type="line"/>
      <point x="1187" y="702" type="line"/>
      <point x="2355" y="702" type="line"/>
      <point x="2355" y="820" type="line"/>
    </contour>
    <contour>
      <point x="1187" y="1054" type="line"/>
      <point x="1187" y="936" type="line"/>
      <point x="2355" y="936" type="line"/>
      <point x="2355" y="1054" type="line"/>
    </contour>
    <contour>
      <point x="1187" y="1288" type="line"/>
      <point x="1187" y="1170" type="line"/>
      <point x="2355" y="1170" type="line"/>
      <point x="2355" y="1288" type="line"/>
    </contour>
    <contour>
      <point x="485" y="1288" type="line"/>
      <point x="485" y="1170" type="line"/>
      <point x="601" y="1170" type="line"/>
      <point x="601" y="1288" type="line"/>
    </contour>
    <contour>
      <point x="719" y="1170" type="line"/>
      <point x="719" y="1054" type="line"/>
      <point x="835" y="1054" type="line"/>
      <point x="835" y="1170" type="line"/>
    </contour>
    <contour>
      <point x="953" y="1288" type="line"/>
      <point x="953" y="1170" type="line"/>
      <point x="1069" y="1170" type="line"/>
      <point x="1069" y="1288" type="line"/>
    </contour>
    <contour>
      <point x="719" y="1170" type="line"/>
      <point x="719" y="1054" type="line"/>
      <point x="835" y="1054" type="line"/>
      <point x="835" y="1170" type="line"/>
    </contour>
    <contour>
      <point x="485" y="1054" type="line"/>
      <point x="485" y="936" type="line"/>
      <point x="601" y="936" type="line"/>
      <point x="601" y="1054" type="line"/>
    </contour>
    <contour>
      <point x="719" y="936" type="line"/>
      <point x="719" y="820" type="line"/>
      <point x="835" y="820" type="line"/>
      <point x="835" y="936" type="line"/>
    </contour>
    <contour>
      <point x="953" y="1054" type="line"/>
      <point x="953" y="936" type="line"/>
      <point x="1069" y="936" type="line"/>
      <point x="1069" y="1054" type="line"/>
    </contour>
    <contour>
      <point x="719" y="936" type="line"/>
      <point x="719" y="820" type="line"/>
      <point x="835" y="820" type="line"/>
      <point x="835" y="936" type="line"/>
    </contour>
    <contour>
      <point x="485" y="820" type="line"/>
      <point x="485" y="702" type="line"/>
      <point x="601" y="702" type="line"/>
      <point x="601" y="820" type="line"/>
    </contour>
    <contour>
      <point x="953" y="820" type="line"/>
      <point x="953" y="702" type="line"/>
      <point x="1069" y="702" type="line"/>
      <point x="1069" y="820" type="line"/>
    </contour>
  </outline>
</glyph>
<glyph name="colon_f_l_a_g_two_colon.liga" format="2">
  <advance width="2565"/>
  <outline>
    <contour>
      <point x="367" y="1396" type="line"/>
      <point x="2259" y="1396" type="line"/>
      <point x="2259" y="126" type="line"/>
      <point x="375" y="126" type="line"/>
    </contour>
    <contour>
      <point x="251" y="1522" type="line"/>
      <point x="251" y="2" type="line"/>
      <point x="2383" y="2" type="line"/>
      <point x="2383" y="1522" type="line"/>
    </contour>
    <contour>
      <point x="271" y="354" type="line"/>
      <point x="271" y="230" type="line"/>
      <point x="2355" y="230" type="line"/>
      <point x="2355" y="354" type="line"/>
    </contour>
    <contour>
      <point x="271" y="588" type="line"/>
      <point x="271" y="464" type="line"/>
      <point x="2355" y="464" type="line"/>
      <point x="2355" y="588" type="line"/>
    </contour>
    <contour>
      <point x="1187" y="822" type="line"/>
      <point x="1187" y="698" type="line"/>
      <point x="2355" y="698" type="line"/>
      <point x="2355" y="822" type="line"/>
    </contour>
    <contour>
      <point x="1187" y="1056" type="line"/>
      <point x="1187" y="932" type="line"/>
      <point x="2355" y="932" type="line"/>
      <point x="2355" y="1056" type="line"/>
    </contour>
    <contour>
      <point x="1187" y="1290" type="line"/>
      <point x="1187" y="1166" type="line"/>
      <point x="2355" y="1166" type="line"/>
      <point x="2355" y="1290" type="line"/>
    </contour>
    <contour>
      <point x="439" y="1288" type="line"/>
      <point x="565" y="1288" type="line"/>
      <point x="565" y="1170" type="line"/>
      <point x="439" y="1170" type="line"/>
    </contour>
    <contour>
      <point x="911" y="1288" type="line"/>
      <point x="1033" y="1288" type="line"/>
      <point x="1033" y="1170" type="line"/>
      <point x="911" y="1170" type="line"/>
    </contour>
    <contour>
      <point x="677" y="1170" type="line"/>
      <point x="799" y="1170" type="line"/>
      <point x="799" y="1054" type="line"/>
      <point x="677" y="1054" type="line"/>
    </contour>
    <contour>
      <point x="443" y="1054" type="line"/>
      <point x="565" y="1054" type="line"/>
      <point x="565" y="936" type="line"/>
      <point x="443" y="936" type="line"/>
    </contour>
    <contour>
      <point x="911" y="1054" type="line"/>
      <point x="1033" y="1054" type="line"/>
      <point x="1033" y="936" type="line"/>
      <point x="911" y="936" type="line"/>
    </contour>
    <contour>
      <point x="677" y="936" type="line"/>
      <point x="799" y="936" type="line"/>
      <point x="799" y="820" type="line"/>
      <point x="677" y="820" type="line"/>
    </contour>
    <contour>
      <point x="443" y="820" type="line"/>
      <point x="565" y="820" type="line"/>
      <point x="565" y="702" type="line"/>
      <point x="443" y="702" type="line"/>
    </contour>
    <contour>
      <point x="911" y="820" type="line"/>
      <point x="1033" y="820" type="line"/>
      <point x="1033" y="702" type="line"/>
      <point x="911" y="702" type="line"/>
    </contour>
    <contour>
      <point x="351" y="1446" type="line"/>
      <point x="345" y="586" type="line"/>
      <point x="1189" y="586" type="line"/>
      <point x="1189" y="1446" type="line"/>
    </contour>
  </outline>
</glyph>
<glyph name="colon_one_eight_F_colon.liga" format="2">
  <advance width="1787"/>
  <outline>
    <contour>
      <point x="190" y="0" type="curve" smooth="yes"/>
      <point x="1666" y="0" type="line" smooth="yes"/>
      <point x="1678" y="0"/>
      <point x="1688" y="10"/>
      <point x="1688" y="26" type="curve" smooth="yes"/>
      <point x="1688" y="1498" type="line" smooth="yes"/>
      <point x="1688" y="1514"/>
      <point x="1680" y="1522"/>
      <point x="1666" y="1522" type="curve" smooth="yes"/>
      <point x="190" y="1522" type="line" smooth="yes"/>
      <point x="176" y="1522"/>
      <point x="168" y="1514"/>
      <point x="168" y="1498" type="curve" smooth="yes"/>
      <point x="168" y="26" type="line" smooth="yes"/>
      <point x="168" y="8"/>
      <point x="176" y="0"/>
    </contour>
    <contour>
      <point x="582" y="478" type="line" smooth="yes"/>
      <point x="578" y="478"/>
      <point x="576" y="480"/>
      <point x="576" y="486" type="curve" smooth="yes"/>
      <point x="576" y="970" type="line"/>
      <point x="502" y="970" type="line" smooth="yes"/>
      <point x="498" y="970"/>
      <point x="496" y="972"/>
      <point x="496" y="978" type="curve" smooth="yes"/>
      <point x="496" y="1030" type="line" smooth="yes"/>
      <point x="496" y="1036"/>
      <point x="498" y="1040"/>
      <point x="502" y="1040" type="curve" smooth="yes"/>
      <point x="638" y="1040" type="line" smooth="yes"/>
      <point x="644" y="1040"/>
      <point x="646" y="1036"/>
      <point x="646" y="1030" type="curve" smooth="yes"/>
      <point x="646" y="486" type="line" smooth="yes"/>
      <point x="646" y="480"/>
      <point x="644" y="478"/>
      <point x="638" y="478" type="curve" smooth="yes"/>
    </contour>
    <contour>
      <point x="902" y="538" type="curve" smooth="yes"/>
      <point x="960" y="538"/>
      <point x="1004" y="584"/>
      <point x="1004" y="640" type="curve" smooth="yes"/>
      <point x="1004" y="698"/>
      <point x="960" y="742"/>
      <point x="902" y="742" type="curve" smooth="yes"/>
      <point x="846" y="742"/>
      <point x="800" y="698"/>
      <point x="800" y="640" type="curve" smooth="yes"/>
      <point x="800" y="584"/>
      <point x="846" y="538"/>
    </contour>
    <contour>
      <point x="902" y="468" type="curve" smooth="yes"/>
      <point x="806" y="468"/>
      <point x="730" y="546"/>
      <point x="730" y="640" type="curve" smooth="yes"/>
      <point x="730" y="698"/>
      <point x="756" y="748"/>
      <point x="804" y="780" type="curve"/>
      <point x="770" y="814"/>
      <point x="750" y="852"/>
      <point x="750" y="896" type="curve" smooth="yes"/>
      <point x="750" y="978"/>
      <point x="814" y="1046"/>
      <point x="902" y="1046" type="curve" smooth="yes"/>
      <point x="984" y="1046"/>
      <point x="1052" y="978"/>
      <point x="1052" y="896" type="curve" smooth="yes"/>
      <point x="1052" y="850"/>
      <point x="1036" y="814"/>
      <point x="1000" y="780" type="curve"/>
      <point x="1046" y="748"/>
      <point x="1074" y="698"/>
      <point x="1074" y="640" type="curve" smooth="yes"/>
      <point x="1074" y="546"/>
      <point x="996" y="468"/>
    </contour>
    <contour>
      <point x="902" y="816" type="curve" smooth="yes"/>
      <point x="948" y="816"/>
      <point x="984" y="848"/>
      <point x="984" y="896" type="curve" smooth="yes"/>
      <point x="984" y="942"/>
      <point x="948" y="978"/>
      <point x="902" y="978" type="curve" smooth="yes"/>
      <point x="856" y="978"/>
      <point x="818" y="942"/>
      <point x="818" y="896" type="curve" smooth="yes"/>
      <point x="818" y="848"/>
      <point x="856" y="816"/>
    </contour>
    <contour>
      <point x="1166" y="478" type="line" smooth="yes"/>
      <point x="1160" y="478"/>
      <point x="1158" y="480"/>
      <point x="1158" y="486" type="curve" smooth="yes"/>
      <point x="1158" y="1030" type="line" smooth="yes"/>
      <point x="1158" y="1036"/>
      <point x="1160" y="1040"/>
      <point x="1166" y="1040" type="curve" smooth="yes"/>
      <point x="1376" y="1040" type="line" smooth="yes"/>
      <point x="1382" y="1040"/>
      <point x="1384" y="1036"/>
      <point x="1384" y="1030" type="curve" smooth="yes"/>
      <point x="1384" y="978" type="line" smooth="yes"/>
      <point x="1384" y="972"/>
      <point x="1382" y="970"/>
      <point x="1376" y="970" type="curve" smooth="yes"/>
      <point x="1230" y="970" type="line"/>
      <point x="1230" y="802" type="line"/>
      <point x="1352" y="802" type="line" smooth="yes"/>
      <point x="1358" y="802"/>
      <point x="1358" y="798"/>
      <point x="1358" y="792" type="curve" smooth="yes"/>
      <point x="1358" y="742" type="line" smooth="yes"/>
      <point x="1358" y="736"/>
      <point x="1358" y="734"/>
      <point x="1352" y="734" type="curve" smooth="yes"/>
      <point x="1230" y="734" type="line"/>
      <point x="1230" y="486" type="line" smooth="yes"/>
      <point x="1230" y="480"/>
      <point x="1226" y="478"/>
      <point x="1218" y="478" type="curve" smooth="yes"/>
    </contour>
  </outline>
</glyph>
<glyph name="espaciador" format="2">
  <advance width="473"/>
  <outline>
    <contour>
      <point x="-109" y="-414" type="line"/>
      <point x="279" y="-414" type="line"/>
      <point x="593" y="1652" type="line"/>
      <point x="205" y="1652" type="line"/>
    </contour>
  </outline>
</glyph>
<glyph name="gravecomb.viet" format="2">
  <anchor x="360" y="1034" name="_top"/>
  <outline>
    <contour>
      <point x="383" y="1413" type="line"/>
      <point x="116" y="1413" type="line"/>
      <point x="279" y="1155" type="line"/>
      <point x="461" y="1155" type="line"/>
    </contour>
  </outline>
</glyph>
<glyph name="l.ss01" format="2">
  <advance width="671"/>
  <anchor x="362" y="0" name="bottom"/>
  <anchor x="380" y="1492" name="top"/>
  <anchor x="862" y="1530" name="topright"/>
  <outline>
    <contour>
      <point x="68" y="0" type="line"/>
      <point x="458" y="0" type="line"/>
      <point x="666" y="1486" type="line"/>
      <point x="276" y="1486" type="line"/>
    </contour>
  </outline>
</glyph>
<glyph name="seven.tf" format="2">
  <advance width="1400"/>
  <outline>
    <contour>
      <point x="290" y="0" type="curve"/>
      <point x="708" y="0" type="line"/>
      <point x="750" y="356"/>
      <point x="1150" y="910"/>
      <point x="1384" y="1134" type="curve"/>
      <point x="1428" y="1446" type="line"/>
      <point x="230" y="1446" type="line"/>
      <point x="186" y="1134" type="line"/>
      <point x="988" y="1134" type="line"/>
      <point x="564" y="696"/>
      <point x="320" y="208"/>
    </contour>
  </outline>
</glyph>
